<svg width="256" height="69" viewBox="0 0 256 69" fill="none" xmlns="http://www.w3.org/2000/svg">
<path d="M4.57031 12.1562C4.23177 12.2083 3.94531 12.2474 3.71094 12.2734C3.47656 12.2995 3.28125 12.3125 3.125 12.3125C2.23958 12.2604 1.61458 12.013 1.25 11.5703C0.885417 11.1016 0.703125 10.3333 0.703125 9.26562C0.703125 7.15625 1.71875 5.82812 3.75 5.28125C5.54688 4.86458 7.47396 4.5651 9.53125 4.38281C11.5885 4.17448 13.8802 4.07031 16.4062 4.07031C19.7917 4.07031 23.151 4.39583 26.4844 5.04688C29.8438 5.69792 33.0339 6.59635 36.0547 7.74219C39.1016 8.86198 41.9271 10.2031 44.5312 11.7656C47.1354 13.3021 49.388 14.9818 51.2891 16.8047C53.2161 18.6016 54.7135 20.5026 55.7812 22.5078C56.875 24.487 57.4219 26.4792 57.4219 28.4844C57.4219 30.5156 56.7318 32.4557 55.3516 34.3047C53.9974 36.1276 52.1615 37.7422 49.8438 39.1484C47.526 40.5547 44.8438 41.6745 41.7969 42.5078C38.75 43.3411 35.5599 43.7578 32.2266 43.7578C29.5703 43.7578 26.7969 43.5104 23.9062 43.0156C21.0156 42.5208 17.8255 41.7266 14.3359 40.6328C12.7214 40.1901 11.9141 39.2005 11.9141 37.6641C11.9141 37.3255 11.9922 37.013 12.1484 36.7266C12.3047 36.4401 12.4609 36.1667 12.6172 35.9062C12.7995 35.6458 12.9688 35.3984 13.125 35.1641C13.2812 34.9036 13.3594 34.6432 13.3594 34.3828C13.3594 32.8984 13.2812 31.3099 13.125 29.6172C12.9948 27.9245 12.7995 26.2318 12.5391 24.5391C12.3047 22.8464 12.0182 21.2318 11.6797 19.6953C11.3672 18.1328 11.0417 16.7526 10.7031 15.5547C10.3646 14.3568 10.013 13.4062 9.64844 12.7031C9.3099 11.974 8.9974 11.6094 8.71094 11.6094C8.26823 11.6094 7.72135 11.6615 7.07031 11.7656C6.44531 11.8698 5.61198 12 4.57031 12.1562ZM19.6094 11.5312C18.8542 11.5312 18.4766 11.7917 18.4766 12.3125C18.4766 12.4427 18.5156 12.6641 18.5938 12.9766C18.6719 13.2891 18.7891 13.7839 18.9453 14.4609C19.1797 15.5547 19.401 16.7266 19.6094 17.9766C19.8177 19.2266 20.026 20.6328 20.2344 22.1953C20.4427 23.7318 20.638 25.4635 20.8203 27.3906C21.0286 29.2917 21.237 31.4401 21.4453 33.8359C21.4714 34.2266 21.8229 34.6042 22.5 34.9688C23.1771 35.3073 24.0755 35.6198 25.1953 35.9062C26.3151 36.1667 27.5911 36.388 29.0234 36.5703C30.4818 36.7266 31.9792 36.8047 33.5156 36.8047C35.5469 36.8047 37.487 36.5703 39.3359 36.1016C41.2109 35.6068 42.8516 34.9557 44.2578 34.1484C45.6901 33.3411 46.8229 32.4036 47.6562 31.3359C48.5156 30.2682 48.9453 29.1615 48.9453 28.0156C48.9453 26.1146 48.1901 24.2656 46.6797 22.4688C45.1953 20.6719 43.138 19.0443 40.5078 17.5859C37.8776 16.1016 34.7786 14.8385 31.2109 13.7969C27.6432 12.7292 23.776 11.974 19.6094 11.5312ZM70.2734 8.09375C72.0182 8.09375 73.8151 8.32812 75.6641 8.79688C77.513 9.23958 79.2057 9.82552 80.7422 10.5547C82.2786 11.2578 83.5417 12.0521 84.5312 12.9375C85.5208 13.8229 86.0156 14.6823 86.0156 15.5156C86.0156 15.9323 85.8333 16.401 85.4688 16.9219C85.1042 17.4167 84.6615 17.8984 84.1406 18.3672C83.6198 18.8099 83.0469 19.1875 82.4219 19.5C81.8229 19.7865 81.2891 19.9297 80.8203 19.9297C80.1953 19.9297 79.4922 19.6693 78.7109 19.1484C77.9557 18.6276 77.1094 18.0547 76.1719 17.4297C75.2604 16.7786 74.2578 16.1927 73.1641 15.6719C72.0703 15.151 70.8854 14.8906 69.6094 14.8906C68.776 14.8906 68.0859 15.099 67.5391 15.5156C67.0182 15.9062 66.7578 16.4661 66.7578 17.1953C66.7578 17.8464 67.0703 18.5104 67.6953 19.1875C68.3203 19.8385 69.1406 20.5156 70.1562 21.2188C71.1979 21.9219 72.3698 22.6641 73.6719 23.4453C74.974 24.2266 76.3021 25.0599 77.6562 25.9453C79.0365 26.8307 80.3776 27.7943 81.6797 28.8359C82.9818 29.8776 84.1406 31.0104 85.1562 32.2344C86.1979 33.4583 87.0312 34.7995 87.6562 36.2578C88.2812 37.6901 88.5938 39.2526 88.5938 40.9453C88.5938 42.4036 88.3333 43.7318 87.8125 44.9297C87.2917 46.1276 86.5495 47.1562 85.5859 48.0156C84.6224 48.875 83.4766 49.5391 82.1484 50.0078C80.8203 50.4766 79.362 50.7109 77.7734 50.7109C75.7682 50.7109 73.9193 50.3984 72.2266 49.7734C70.5339 49.1745 69.0755 48.3411 67.8516 47.2734C66.6276 46.2057 65.6641 44.9297 64.9609 43.4453C64.2839 41.9609 63.9453 40.3333 63.9453 38.5625C63.9453 36.2708 64.349 34.6042 65.1562 33.5625C65.9896 32.5208 67.2917 32 69.0625 32C70.1562 32 71.0286 32.2083 71.6797 32.625C72.3307 33.0417 72.6562 33.5495 72.6562 34.1484C72.6562 34.4609 72.6042 34.7865 72.5 35.125C72.3958 35.4375 72.2786 35.776 72.1484 36.1406C72.0443 36.4792 71.9401 36.8438 71.8359 37.2344C71.7578 37.625 71.7188 38.0156 71.7188 38.4062C71.7188 39.0833 71.875 39.7344 72.1875 40.3594C72.5 40.9844 72.9167 41.5312 73.4375 42C73.9844 42.4948 74.6094 42.8854 75.3125 43.1719C76.0156 43.4583 76.7578 43.6016 77.5391 43.6016C79.6224 43.6016 80.6641 42.7422 80.6641 41.0234C80.6641 39.6693 80.1302 38.3932 79.0625 37.1953C77.9948 35.9714 76.6536 34.7865 75.0391 33.6406C73.4245 32.4688 71.6797 31.2969 69.8047 30.125C67.9557 28.9531 66.224 27.7292 64.6094 26.4531C62.9948 25.1771 61.6536 23.8229 60.5859 22.3906C59.5182 20.9323 58.9844 19.3568 58.9844 17.6641C58.9844 16.2578 59.2708 14.9688 59.8438 13.7969C60.4427 12.625 61.25 11.6224 62.2656 10.7891C63.2812 9.92969 64.4661 9.26562 65.8203 8.79688C67.2005 8.32812 68.6849 8.09375 70.2734 8.09375ZM88.9062 4.38281C88.9062 1.57031 90.7292 0.164062 94.375 0.164062C95 0.164062 95.5469 0.333333 96.0156 0.671875C96.4844 1.01042 96.7578 1.47917 96.8359 2.07812C97.0703 3.66667 97.2786 5.24219 97.4609 6.80469C97.6432 8.36719 97.8125 10.125 97.9688 12.0781C98.151 14.0052 98.3203 16.2448 98.4766 18.7969C98.6589 21.3229 98.8542 24.3438 99.0625 27.8594C99.0625 28.224 99.1146 28.4844 99.2188 28.6406C99.349 28.7969 99.4922 28.875 99.6484 28.875C99.8828 28.875 100.117 28.6406 100.352 28.1719C101.237 26.2188 102.227 24.474 103.32 22.9375C104.414 21.375 105.586 20.0599 106.836 18.9922C108.086 17.8984 109.401 17.0781 110.781 16.5312C112.188 15.9583 113.62 15.6719 115.078 15.6719C117.005 15.6719 118.75 16.2188 120.312 17.3125C121.875 18.4062 123.203 19.9557 124.297 21.9609C125.391 23.9661 126.237 26.401 126.836 29.2656C127.435 32.1042 127.734 35.2812 127.734 38.7969C127.734 39.7604 127.656 40.5547 127.5 41.1797C127.37 41.7786 127.135 42.2604 126.797 42.625C126.458 42.9896 125.99 43.237 125.391 43.3672C124.792 43.5234 124.049 43.6016 123.164 43.6016C121.94 43.6016 121.055 43.3672 120.508 42.8984C119.987 42.4297 119.727 41.7005 119.727 40.7109C119.727 38.263 119.557 35.9583 119.219 33.7969C118.906 31.6094 118.464 29.6953 117.891 28.0547C117.318 26.4141 116.641 25.112 115.859 24.1484C115.104 23.1849 114.284 22.7031 113.398 22.7031C111.393 22.7031 109.388 24.3307 107.383 27.5859C105.404 30.8411 103.333 35.75 101.172 42.3125C100.964 42.9115 100.729 43.4062 100.469 43.7969C100.208 44.1875 99.8958 44.5 99.5312 44.7344C99.1927 44.9688 98.776 45.125 98.2812 45.2031C97.7865 45.3073 97.2005 45.3594 96.5234 45.3594C95.1432 45.3594 94.1536 45.099 93.5547 44.5781C92.9818 44.0573 92.6693 43.1979 92.6172 42C92.4609 37.4688 92.1745 33.1458 91.7578 29.0312C91.3672 24.8906 90.9505 21.1536 90.5078 17.8203C90.0911 14.4609 89.7135 11.6224 89.375 9.30469C89.0625 6.96094 88.9062 5.32031 88.9062 4.38281ZM157.5 7.85938C158.932 7.85938 160.312 8.08073 161.641 8.52344C162.969 8.96615 164.141 9.57812 165.156 10.3594C166.172 11.1406 166.979 12.0781 167.578 13.1719C168.203 14.2656 168.516 15.4766 168.516 16.8047C168.516 17.3516 168.385 17.8854 168.125 18.4062C167.891 18.901 167.565 19.3438 167.148 19.7344C166.732 20.099 166.25 20.3984 165.703 20.6328C165.182 20.8411 164.635 20.9453 164.062 20.9453C164.01 20.9453 163.958 20.9583 163.906 20.9844C163.88 20.9844 163.841 20.9844 163.789 20.9844C163.737 21.0104 163.685 21.0234 163.633 21.0234L163.789 24.1484C163.893 27.8724 164.414 30.5938 165.352 32.3125C166.315 34.0312 167.565 34.8906 169.102 34.8906C169.648 34.8906 170.13 34.8385 170.547 34.7344C170.99 34.6302 171.393 34.513 171.758 34.3828C172.148 34.2266 172.513 34.0964 172.852 33.9922C173.19 33.888 173.529 33.8359 173.867 33.8359C174.466 33.8359 174.987 34.0964 175.43 34.6172C175.898 35.138 176.133 35.763 176.133 36.4922C176.133 37.2214 175.846 37.9505 175.273 38.6797C174.727 39.4089 173.997 40.0729 173.086 40.6719C172.174 41.2448 171.146 41.7135 170 42.0781C168.854 42.4427 167.695 42.625 166.523 42.625C164.492 42.625 162.708 41.7917 161.172 40.125C159.635 38.4323 158.542 35.9583 157.891 32.7031C157.734 32.1823 157.526 31.9219 157.266 31.9219C156.953 31.9219 156.68 32.0781 156.445 32.3906C153.867 35.6458 151.12 38.0938 148.203 39.7344C145.286 41.349 142.409 42.1562 139.57 42.1562C138.242 42.1562 137.044 41.9609 135.977 41.5703C134.909 41.1797 133.997 40.6328 133.242 39.9297C132.513 39.2005 131.94 38.3281 131.523 37.3125C131.133 36.2708 130.938 35.112 130.938 33.8359C130.938 32.0391 131.328 30.151 132.109 28.1719C132.917 26.1927 133.997 24.2396 135.352 22.3125C136.706 20.3854 138.268 18.5495 140.039 16.8047C141.836 15.0599 143.711 13.5234 145.664 12.1953C147.643 10.8672 149.648 9.8125 151.68 9.03125C153.711 8.25 155.651 7.85938 157.5 7.85938ZM156.211 21.375C156.68 20.4896 157.109 19.8516 157.5 19.4609C157.891 19.0443 158.451 18.7708 159.18 18.6406C159.753 18.5625 160.039 18.3802 160.039 18.0938C160.039 17.8854 159.961 17.6641 159.805 17.4297C159.31 16.7526 158.789 16.1667 158.242 15.6719C157.695 15.151 156.966 14.8906 156.055 14.8906C155.065 14.8906 153.958 15.1771 152.734 15.75C151.51 16.3229 150.26 17.0911 148.984 18.0547C147.734 18.9922 146.497 20.0729 145.273 21.2969C144.076 22.4948 143.008 23.7318 142.07 25.0078C141.133 26.2839 140.378 27.5469 139.805 28.7969C139.232 30.0469 138.945 31.1667 138.945 32.1562C138.945 33.0417 139.18 33.7318 139.648 34.2266C140.143 34.7214 140.807 34.9688 141.641 34.9688C143.776 34.9688 146.107 33.8359 148.633 31.5703C151.159 29.3047 153.685 25.9062 156.211 21.375ZM173.633 14.7344C173.633 13.7188 174.089 12.9505 175 12.4297C175.911 11.8828 177.214 11.6094 178.906 11.6094C179.297 11.6094 179.648 11.6615 179.961 11.7656C180.273 11.8698 180.547 12.0781 180.781 12.3906C181.042 12.6771 181.276 13.0807 181.484 13.6016C181.693 14.1224 181.901 14.7865 182.109 15.5938C182.318 16.5052 182.526 16.9609 182.734 16.9609C182.917 16.9609 183.138 16.5833 183.398 15.8281C183.867 14.3438 184.479 13.0547 185.234 11.9609C186.016 10.8411 186.888 9.91667 187.852 9.1875C188.815 8.43229 189.857 7.8724 190.977 7.50781C192.122 7.14323 193.32 6.96094 194.57 6.96094C197.096 6.96094 199.453 7.44271 201.641 8.40625C203.828 9.34375 205.716 10.6589 207.305 12.3516C208.893 14.0182 210.143 15.9974 211.055 18.2891C211.966 20.5547 212.422 23.0156 212.422 25.6719C212.422 28.4844 211.927 31.0885 210.938 33.4844C209.974 35.8802 208.62 37.9505 206.875 39.6953C205.13 41.4141 203.047 42.7552 200.625 43.7188C198.229 44.7083 195.599 45.2031 192.734 45.2031L190.742 45.125C189.57 45.125 188.984 45.7891 188.984 47.1172L190.977 65.0469C190.951 65.4896 190.794 65.8932 190.508 66.2578C190.247 66.6484 189.883 66.987 189.414 67.2734C188.971 67.5599 188.438 67.7812 187.812 67.9375C187.214 68.0938 186.589 68.1719 185.938 68.1719C184.062 68.1719 183.047 67.5599 182.891 66.3359C182.344 61.5964 181.732 57.0911 181.055 52.8203C180.404 48.5495 179.727 44.5781 179.023 40.9062C178.346 37.2083 177.682 33.849 177.031 30.8281C176.38 27.8073 175.794 25.1771 175.273 22.9375C174.779 20.6979 174.388 18.875 174.102 17.4688C173.789 16.0625 173.633 15.151 173.633 14.7344ZM186.328 25.0469C186.328 26.7396 186.393 28.4193 186.523 30.0859C186.654 31.7266 186.862 33.5104 187.148 35.4375C187.305 36.6094 187.943 37.2734 189.062 37.4297C189.74 37.5859 190.495 37.7422 191.328 37.8984C192.188 38.0286 192.904 38.0938 193.477 38.0938C195.143 38.0938 196.654 37.8464 198.008 37.3516C199.362 36.8568 200.521 36.1536 201.484 35.2422C202.448 34.3047 203.19 33.1979 203.711 31.9219C204.232 30.6458 204.492 29.2266 204.492 27.6641C204.492 25.763 204.232 23.9922 203.711 22.3516C203.19 20.6849 202.474 19.2396 201.562 18.0156C200.677 16.7917 199.622 15.8281 198.398 15.125C197.201 14.4219 195.898 14.0703 194.492 14.0703C193.268 14.0703 192.148 14.3438 191.133 14.8906C190.143 15.4115 189.284 16.1536 188.555 17.1172C187.852 18.0547 187.305 19.2005 186.914 20.5547C186.523 21.9089 186.328 23.4062 186.328 25.0469ZM250.039 33.4453C250.794 32.7943 251.536 32.4688 252.266 32.4688C252.682 32.4688 253.06 32.5729 253.398 32.7812C253.737 32.9896 254.115 33.3151 254.531 33.7578C254.922 34.3568 255.195 34.8516 255.352 35.2422C255.534 35.6068 255.625 35.9714 255.625 36.3359C255.625 37.1172 255.234 37.8594 254.453 38.5625C253.203 39.6042 251.849 40.5417 250.391 41.375C248.932 42.1823 247.409 42.8724 245.82 43.4453C244.232 44.0182 242.591 44.4479 240.898 44.7344C239.206 45.0469 237.526 45.2031 235.859 45.2031C233.75 45.2031 231.771 44.9297 229.922 44.3828C228.073 43.862 226.419 43.1068 224.961 42.1172C223.529 41.1276 222.318 39.9427 221.328 38.5625C220.339 37.1562 219.635 35.5807 219.219 33.8359C218.984 33.1068 218.763 32.638 218.555 32.4297C218.372 32.1953 218.06 32.0781 217.617 32.0781C216.654 32.0781 215.911 31.8438 215.391 31.375C214.87 30.9062 214.609 30.2292 214.609 29.3438C214.609 28.9792 214.635 28.7448 214.688 28.6406L214.766 27.8594C214.896 26.9219 215.143 26.2448 215.508 25.8281C215.898 25.4115 216.497 25.2031 217.305 25.2031H217.891C218.984 25.2031 219.753 24.6953 220.195 23.6797C221.003 21.8828 222.031 20.2422 223.281 18.7578C224.531 17.2734 225.938 16.0104 227.5 14.9688C229.062 13.901 230.729 13.0807 232.5 12.5078C234.297 11.9089 236.12 11.6094 237.969 11.6094C239.896 11.6094 241.693 11.8958 243.359 12.4688C245.052 13.0156 246.523 13.7839 247.773 14.7734C249.023 15.763 250 16.9219 250.703 18.25C251.432 19.5781 251.797 21.0104 251.797 22.5469C251.797 23.6146 251.589 24.5911 251.172 25.4766C250.755 26.362 250.156 27.1432 249.375 27.8203C248.594 28.4714 247.643 29.0052 246.523 29.4219C245.43 29.8385 244.18 30.112 242.773 30.2422L229.219 31.6094C228.698 31.6094 228.268 31.7396 227.93 32C227.617 32.2604 227.461 32.612 227.461 33.0547C227.461 33.7318 227.708 34.3828 228.203 35.0078C228.724 35.6328 229.401 36.1927 230.234 36.6875C231.094 37.1562 232.07 37.5339 233.164 37.8203C234.284 38.1068 235.43 38.25 236.602 38.25C237.721 38.25 238.867 38.1458 240.039 37.9375C241.237 37.7031 242.409 37.3776 243.555 36.9609C244.727 36.5443 245.859 36.0495 246.953 35.4766C248.047 34.8776 249.076 34.2005 250.039 33.4453ZM241.328 23.3672C241.719 23.2891 242.057 23.1068 242.344 22.8203C242.63 22.5078 242.773 22.1302 242.773 21.6875C242.773 21.2969 242.63 20.9323 242.344 20.5938C242.057 20.2552 241.667 19.9557 241.172 19.6953C240.677 19.4089 240.104 19.1875 239.453 19.0312C238.802 18.875 238.112 18.7969 237.383 18.7969C236.315 18.7969 235.221 18.9531 234.102 19.2656C232.982 19.5781 231.966 19.9948 231.055 20.5156C230.143 21.0104 229.401 21.5703 228.828 22.1953C228.255 22.7943 227.969 23.3932 227.969 23.9922C227.969 24.5911 228.333 24.8906 229.062 24.8906C229.505 24.8906 230.221 24.8385 231.211 24.7344C232.201 24.6302 233.294 24.513 234.492 24.3828C235.69 24.2266 236.901 24.0573 238.125 23.875C239.349 23.6927 240.417 23.5234 241.328 23.3672Z" fill="white"/>
</svg>
